<?xml version="1.0" encoding="UTF-8" standalone="no"?>
<!-- Created with Inkscape (http://www.inkscape.org/) -->

<svg
   xmlns:dc="http://purl.org/dc/elements/1.1/"
   xmlns:cc="http://creativecommons.org/ns#"
   xmlns:rdf="http://www.w3.org/1999/02/22-rdf-syntax-ns#"
   xmlns:svg="http://www.w3.org/2000/svg"
   xmlns="http://www.w3.org/2000/svg"
   xmlns:sodipodi="http://sodipodi.sourceforge.net/DTD/sodipodi-0.dtd"
   xmlns:inkscape="http://www.inkscape.org/namespaces/inkscape"
   width="31.799999mm"
   height="27.4mm"
   viewBox="0 0 112.67716 97.086612"
   id="svg2"
   version="1.1"
   inkscape:version="0.91 r13725"
   sodipodi:docname="copper.svg">
  <defs
     id="defs4" />
  <sodipodi:namedview
     id="base"
     pagecolor="#ffffff"
     bordercolor="#666666"
     borderopacity="1.0"
     inkscape:pageopacity="0.0"
     inkscape:pageshadow="2"
     inkscape:zoom="5.8574422"
     inkscape:cx="56.338584"
     inkscape:cy="48.543307"
     inkscape:document-units="px"
     inkscape:current-layer="layer3"
     showgrid="false"
     showguides="false"
     inkscape:window-width="798"
     inkscape:window-height="828"
     inkscape:window-x="-7"
     inkscape:window-y="0"
     inkscape:window-maximized="0" />
  <metadata
     id="metadata7">
    <rdf:RDF>
      <cc:Work
         rdf:about="">
        <dc:format>image/svg+xml</dc:format>
        <dc:type
           rdf:resource="http://purl.org/dc/dcmitype/StillImage" />
        <dc:title></dc:title>
      </cc:Work>
    </rdf:RDF>
  </metadata>
  <g
     inkscape:label="Layer 1"
     inkscape:groupmode="layer"
     id="layer1"
     transform="translate(0,-955.27559)" />
  <g
     inkscape:groupmode="layer"
     id="layer2"
     inkscape:label="mask">
    <g
       id="mask"
       inkscape:label="mask">
      <rect
         ry="1.7716535"
         rx="1.7716535"
         y="0.88596159"
         x="54.389904"
         height="7.0863342"
         width="57.401295"
         id="rect4137"
         style="fill:none;fill-opacity:1;stroke:#1a1a1a;stroke-width:1.77193344;stroke-linecap:round;stroke-linejoin:round;stroke-miterlimit:4;stroke-dasharray:none;stroke-opacity:1" />
      <rect
         ry="1.7716535"
         rx="1.7716535"
         y="9.7441206"
         x="0.88585985"
         height="67.677101"
         width="110.90545"
         id="rect4141"
         style="fill:none;fill-opacity:1;stroke:#1a1a1a;stroke-width:1.77171969;stroke-linecap:round;stroke-linejoin:round;stroke-miterlimit:4;stroke-dasharray:none;stroke-opacity:1" />
      <rect
         ry="1.77165"
         rx="1.77165"
         y="79.192909"
         x="68.91732"
         height="17.007874"
         width="42.874016"
         id="rect4143"
         style="fill:none;fill-opacity:1;stroke:#1a1a1a;stroke-width:1.77165353;stroke-linecap:round;stroke-linejoin:round;stroke-miterlimit:4;stroke-dasharray:none;stroke-opacity:1" />
      <rect
         y="3.5433114"
         x="53.503941"
         height="7.0865998"
         width="1.7716365"
         id="rect4145"
         style="fill:#1a1a1a;fill-opacity:1;stroke:#1a1a1a;stroke-width:0;stroke-linecap:round;stroke-linejoin:miter;stroke-miterlimit:4;stroke-dasharray:none;stroke-opacity:1" />
      <rect
         y="4.2519593"
         x="55.27565"
         height="7.0866132"
         width="55.62981"
         id="rect4147"
         style="fill:#ffffff;fill-opacity:1;stroke:#1a1a1a;stroke-width:0;stroke-linecap:round;stroke-linejoin:miter;stroke-miterlimit:4;stroke-dasharray:none;stroke-opacity:1" />
      <rect
         y="5.6692953"
         x="110.90552"
         height="7.0865998"
         width="1.7716365"
         id="rect4145-0"
         style="fill:#1a1a1a;fill-opacity:1;stroke:#1a1a1a;stroke-width:0;stroke-linecap:round;stroke-linejoin:miter;stroke-miterlimit:4;stroke-dasharray:none;stroke-opacity:1" />
      <rect
         y="9.7440948"
         x="54.566933"
         height="1.0629811"
         width="1.0629802"
         id="rect4164"
         style="fill:#ffffff;fill-opacity:1;stroke:#1a1a1a;stroke-width:0;stroke-linecap:round;stroke-linejoin:miter;stroke-miterlimit:4;stroke-dasharray:none;stroke-opacity:1" />
      <rect
         width="1.7716416"
         ry="1.7716516"
         rx="2.5006838"
         y="8.8582592"
         x="53.503941"
         height="1.7716516"
         id="rect4166"
         style="fill:#1a1a1a;fill-opacity:1;stroke:#1a1a1a;stroke-width:0;stroke-linecap:round;stroke-linejoin:miter;stroke-miterlimit:4;stroke-dasharray:none;stroke-opacity:1" />
      <rect
         y="75.472435"
         x="69.803162"
         height="7.0866075"
         width="41.102352"
         id="rect4168"
         style="fill:#ffffff;fill-opacity:1;stroke:#1a1a1a;stroke-width:0;stroke-linecap:round;stroke-linejoin:miter;stroke-miterlimit:4;stroke-dasharray:none;stroke-opacity:1" />
      <rect
         y="74.763786"
         x="110.90552"
         height="7.0865998"
         width="1.7716365"
         id="rect4145-0-4"
         style="fill:#1a1a1a;fill-opacity:1;stroke:#1a1a1a;stroke-width:0;stroke-linecap:round;stroke-linejoin:miter;stroke-miterlimit:4;stroke-dasharray:none;stroke-opacity:1" />
      <rect
         y="76.535439"
         x="68.031502"
         height="7.0865998"
         width="1.7716365"
         id="rect4145-0-9"
         style="fill:#1a1a1a;fill-opacity:1;stroke:#1a1a1a;stroke-width:0;stroke-linecap:round;stroke-linejoin:miter;stroke-miterlimit:4;stroke-dasharray:none;stroke-opacity:1" />
      <rect
         y="75.649612"
         x="68.917328"
         height="1.771644"
         width="1.7716454"
         id="rect4191"
         style="fill:#ffffff;fill-opacity:1;stroke:#1a1a1a;stroke-width:0;stroke-linecap:round;stroke-linejoin:miter;stroke-miterlimit:4;stroke-dasharray:none;stroke-opacity:1" />
      <rect
         ry="1.7716535"
         rx="1.7716535"
         y="76.535423"
         x="68.031502"
         height="1.7716535"
         width="1.7716535"
         id="rect4195"
         style="fill:#1a1a1a;fill-opacity:1;stroke:#1a1a1a;stroke-width:0;stroke-linecap:round;stroke-linejoin:miter;stroke-miterlimit:4;stroke-dasharray:none;stroke-opacity:1" />
    </g>
  </g>
  <g
     inkscape:groupmode="layer"
     id="layer3"
     inkscape:label="copper0">
    <path
       style="fill:#d4aa00;fill-opacity:1;stroke:#1a1a1a;stroke-width:0;stroke-linecap:round;stroke-linejoin:miter;stroke-miterlimit:4;stroke-dasharray:none;stroke-opacity:1"
       d="m 14.030824,36.495453 c -3.92598,0 -7.0859371,3.159956 -7.0859371,7.085937 0,3.925981 3.1599571,7.087891 7.0859371,7.087891 3.925981,0 7.087891,-3.16191 7.087891,-7.087891 0,-3.925981 -3.16191,-7.085937 -7.087891,-7.085937 z m 0,3.542969 c 1.962992,0 3.542969,1.579975 3.542969,3.542968 0,1.962992 -1.579977,3.544922 -3.542969,3.544922 -1.962992,0 -3.542968,-1.58193 -3.542968,-3.544922 0,-1.962993 1.579976,-3.542968 3.542968,-3.542968 z"
       id="rect4217-6"
       inkscape:connector-curvature="0" />
    <path
       style="fill:#d4aa00;fill-opacity:1;stroke:#1a1a1a;stroke-width:0;stroke-linecap:round;stroke-linejoin:miter;stroke-miterlimit:4;stroke-dasharray:none;stroke-opacity:1"
       d="m 103.81822,71.219863 c -3.925975,0 -7.085932,3.159957 -7.085932,7.085938 0,3.92598 3.159957,7.08789 7.085932,7.08789 3.92598,0 7.08789,-3.16191 7.08789,-7.08789 0,-3.925981 -3.16191,-7.085938 -7.08789,-7.085938 z m 0,3.54297 c 1.96299,0 3.54297,1.579975 3.54297,3.542968 0,1.962992 -1.57998,3.544921 -3.54297,3.544921 -1.96299,0 -3.54296,-1.581929 -3.54296,-3.544921 0,-1.962993 1.57997,-3.542968 3.54296,-3.542968 z"
       id="rect4217-6-1"
       inkscape:connector-curvature="0" />
    <path
       style="fill:#d4aa00;fill-opacity:1;stroke:#1a1a1a;stroke-width:0;stroke-linecap:round;stroke-linejoin:miter;stroke-miterlimit:4;stroke-dasharray:none;stroke-opacity:1"
       d="m 76.888787,71.219863 c -3.925811,0 -7.085632,3.159956 -7.085632,7.085937 0,3.925981 3.159821,7.087891 7.085632,7.087891 3.925812,0 7.087586,-3.16191 7.087586,-7.087891 0,-3.925981 -3.161774,-7.085937 -7.087586,-7.085937 z m 0,3.542969 c 1.962908,0 3.542817,1.579975 3.542817,3.542968 0,1.962992 -1.579909,3.544922 -3.542817,3.544922 -1.962908,0 -3.542815,-1.58193 -3.542815,-3.544922 0,-1.962993 1.579907,-3.542968 3.542815,-3.542968 z"
       id="rect4217-6-5"
       inkscape:connector-curvature="0" />
    <path
       style="fill:#d4aa00;fill-opacity:1;stroke:#1a1a1a;stroke-width:0;stroke-linecap:round;stroke-linejoin:miter;stroke-miterlimit:4;stroke-dasharray:none;stroke-opacity:1"
       d="m 68.030824,8.1489961 c -3.92598,0 -7.085937,3.1599559 -7.085937,7.0859379 0,3.92598 3.159957,7.08789 7.085937,7.08789 3.925981,0 7.087891,-3.16191 7.087891,-7.08789 0,-3.925982 -3.16191,-7.0859379 -7.087891,-7.0859379 z m 0,3.5429689 c 1.962992,0 3.542969,1.579976 3.542969,3.542969 0,1.962992 -1.579977,3.544921 -3.542969,3.544921 -1.962992,0 -3.542968,-1.581929 -3.542968,-3.544921 0,-1.962993 1.579976,-3.542969 3.542968,-3.542969 z"
       id="rect4217-6-9"
       inkscape:connector-curvature="0" />
    <path
       style="fill:#d4aa00;fill-opacity:1;stroke:#1a1a1a;stroke-width:0;stroke-linecap:round;stroke-linejoin:miter;stroke-miterlimit:4;stroke-dasharray:none;stroke-opacity:1"
       d="m 23.033116,21.967217 c -1.962992,0 -3.544922,1.58193 -3.544922,3.544922 0,1.962992 1.58193,3.542969 3.544922,3.542969 1.962991,0 3.542967,-1.579977 3.542967,-3.542969 0,-1.962992 -1.579976,-3.544922 -3.542967,-3.544922 z m 0,1.771485 c 0.981495,0 1.771483,0.791941 1.771483,1.773437 0,0.981496 -0.789988,1.771485 -1.771483,1.771485 -0.981496,0 -1.773438,-0.789989 -1.773437,-1.771485 0,-0.981496 0.791941,-1.773437 1.773437,-1.773437 z"
       id="rect4280"
       inkscape:connector-curvature="0" />
    <path
       style="fill:#d4aa00;fill-opacity:1;stroke:#1a1a1a;stroke-width:0;stroke-linecap:round;stroke-linejoin:miter;stroke-miterlimit:4;stroke-dasharray:none;stroke-opacity:1"
       d="m 23.033116,58.10894 c -1.962992,0 -3.544922,1.582 -3.544922,3.545 0,1.9629 1.58193,3.5429 3.544922,3.5429 1.962991,0 3.542967,-1.58 3.542967,-3.5429 0,-1.963 -1.579976,-3.545 -3.542967,-3.545 z m 0,1.7715 c 0.981495,0 1.771483,0.792 1.771483,1.7735 0,0.9815 -0.789988,1.7714 -1.771483,1.7714 -0.981496,0 -1.773438,-0.7899 -1.773437,-1.7714 0,-0.9815 0.791941,-1.7735 1.773437,-1.7735 z"
       id="rect4280-7"
       inkscape:connector-curvature="0" />
  </g>
</svg>
